# xmcd
#
# Track frame offsets:
#	150
#	15733
#	30472
#	45252
#	60006
#	72178
#	84064
#	99696
#	114682
#	128233
#	144014
#	157797
#	172915
#	186551
#	202085
#	218037
#
# Disc length: 3121 seconds
#
# Revision: 0
# Processed by: cddbd v1.4b41PL3 Copyright (c) Steve Scherf et al.
# Submitted via: audiograbber 1.80
#
DISCID=c60c2f10
DTITLE=Flippers - Das Beste
DYEAR=1900
DGENRE=
TTITLE0=Liebe, die wie Feuer brennt
TTITLE1=Sayonara
TTITLE2=Goodbye Eloisa
TTITLE3=Mandolinen einer Sommernacht
TTITLE4=Je t'aime heiﬂt:Ich liebe Dich
TTITLE5=Weine nicht kleine Eva
TTITLE6=Sommernacht am Lago Maggiore
TTITLE7=Rote Rosen
TTITLE8=Monja
TTITLE9=Meine Liebe trocknet deine Tr‰nen
TTITLE10=Sommer der Erinnerung
TTITLE11=Im heiﬂen Sand von Rhodos
TTITLE12=Ein Sonntag in Paris
TTITLE13=Ich schenk' dir mein Leben
TTITLE14=Angelina
TTITLE15=Tr‰um doch mit mir von der Insel
EXTD=
EXTT0=
EXTT1=
EXTT2=
EXTT3=
EXTT4=
EXTT5=
EXTT6=
EXTT7=
EXTT8=
EXTT9=
EXTT10=
EXTT11=
EXTT12=
EXTT13=
EXTT14=
EXTT15=
PLAYORDER=
